<svg viewBox="0 0 60 60" fill="white" xmlns="http://www.w3.org/2000/svg">
<path fill-rule="evenodd" clip-rule="evenodd" d="M60 0H0V60H31.1883V54.1549L28.6507 48.8459L43.9447 43.5363L38.8941 51.4881L32.9949 53.5532V60H60V0ZM21.7603 8.70636L14.0424 11.3973L10.1036 21.2598L15.3079 17.1918L28.9741 12.4358L28.5257 11.508C27.5784 9.56194 25.6226 8.40063 23.5641 8.40063C22.9642 8.40063 22.355 8.49929 21.7603 8.70636ZM15.3479 42.6964L10.9727 37.9711L39.0115 28.2317L48.2042 33.5468L41.5986 33.5713L15.3479 42.6964ZM16.8882 44.4221L25.4232 47.6971L45.1298 40.8455L51.7355 40.827L42.5427 35.5119L16.8882 44.4221ZM20.9272 17.504L12.3431 35.2252L20.288 32.4602L28.879 14.7385L20.9272 17.504Z" fill="currentColor"></path>
</svg>